# xmcd
#
# Track frame offsets: 
#        150
#        23370
#        42317
#        60776
#        79182
#        101077
#        114558
#        131593
#        152468
#        165228
#        177059
#        196360
#        213020
#
# Disc length: 3051 seconds
#
# Revision: 0
# Processed by: cddbd v1.5.2PL0 Copyright (c) Steve Scherf et al.
# Submitted via: ExactAudioCopyFreeDBPlugin 1.0
#
DISCID=910be90d
DTITLE=Sea Sick Steve - Treasures
DYEAR=1900
DGENRE=
TTITLE0=Treasures
TTITLE1=You Can't Teach an Old Dog New Tricks
TTITLE2=Burnin' Up
TTITLE3=Don't Know Why She Love Me But She Do
TTITLE4=Have Mercy on the Lonely
TTITLE5=Whiskey Ballad
TTITLE6=Back in the Doghouse
TTITLE7=Underneath a Blue and Colourless Sky
TTITLE8=What a Way to Go
TTITLE9=Part
TTITLE10=Days Gone
TTITLE11=It's a Long, Long Way
TTITLE12=Levee Camp Blues (Write Me a Few of Your Lines)
EXTD=
EXTT0=
EXTT1=
EXTT2=
EXTT3=
EXTT4=
EXTT5=
EXTT6=
EXTT7=
EXTT8=
EXTT9=
EXTT10=
EXTT11=
EXTT12=
PLAYORDER=
